<?xml version="1.0" encoding="UTF-8" standalone="no"?>
<!-- Created with Inkscape (http://www.inkscape.org/) -->

<svg
   xmlns:dc="http://purl.org/dc/elements/1.1/"
   xmlns:cc="http://creativecommons.org/ns#"
   xmlns:rdf="http://www.w3.org/1999/02/22-rdf-syntax-ns#"
   xmlns:svg="http://www.w3.org/2000/svg"
   xmlns="http://www.w3.org/2000/svg"
   xmlns:sodipodi="http://sodipodi.sourceforge.net/DTD/sodipodi-0.dtd"
   xmlns:inkscape="http://www.inkscape.org/namespaces/inkscape"
   width="470.349"
   height="471.12195"
   id="svg4917"
   version="1.1"
   inkscape:version="0.47 r22583"
   sodipodi:docname="PNR Party (Mexico).svg">
  <defs
     id="defs4919">
    <inkscape:perspective
       sodipodi:type="inkscape:persp3d"
       inkscape:vp_x="0 : 526.18109 : 1"
       inkscape:vp_y="0 : 1000 : 0"
       inkscape:vp_z="744.09448 : 526.18109 : 1"
       inkscape:persp3d-origin="372.04724 : 350.78739 : 1"
       id="perspective4925" />
    <inkscape:perspective
       id="perspective4899"
       inkscape:persp3d-origin="0.5 : 0.33333333 : 1"
       inkscape:vp_z="1 : 0.5 : 1"
       inkscape:vp_y="0 : 1000 : 0"
       inkscape:vp_x="0 : 0.5 : 1"
       sodipodi:type="inkscape:persp3d" />
    <inkscape:perspective
       id="perspective3800"
       inkscape:persp3d-origin="0.5 : 0.33333333 : 1"
       inkscape:vp_z="1 : 0.5 : 1"
       inkscape:vp_y="0 : 1000 : 0"
       inkscape:vp_x="0 : 0.5 : 1"
       sodipodi:type="inkscape:persp3d" />
  </defs>
  <sodipodi:namedview
     id="base"
     pagecolor="#ffffff"
     bordercolor="#666666"
     borderopacity="1.0"
     inkscape:pageopacity="0.0"
     inkscape:pageshadow="2"
     inkscape:zoom="0.79375346"
     inkscape:cx="215.7523"
     inkscape:cy="198.92433"
     inkscape:document-units="px"
     inkscape:current-layer="layer1"
     showgrid="false"
     inkscape:window-width="1366"
     inkscape:window-height="706"
     inkscape:window-x="-8"
     inkscape:window-y="-8"
     inkscape:window-maximized="1" />
  <metadata
     id="metadata4922">
    <rdf:RDF>
      <cc:Work
         rdf:about="">
        <dc:format>image/svg+xml</dc:format>
        <dc:type
           rdf:resource="http://purl.org/dc/dcmitype/StillImage" />
        <dc:title />
      </cc:Work>
    </rdf:RDF>
  </metadata>
  <g
     inkscape:label="Capa 1"
     inkscape:groupmode="layer"
     id="layer1"
     transform="translate(1455.1745,271.77025)">
    <g
       id="g3679">
      <path
         class="fil16 str0"
         d="m -1407.7207,-271.27025 375.4405,0 c 25.8031,0 46.95469,21.14886 46.95469,46.95381 l 0,376.2134 c 0,25.80587 -21.15159,46.95473 -46.95469,46.95473 l -375.4405,0 c -25.8049,0.003 -46.9538,-21.14702 -46.9538,-46.95105 l 0,-376.21708 c 0,-25.80495 21.1489,-46.95381 46.9538,-46.95381 z"
         id="path108-7"
         style="fill:#e6e6e6;fill-rule:evenodd;stroke:#000000;stroke-width:1;stroke-miterlimit:4;stroke-opacity:1;stroke-dasharray:none" />
      <path
         class="fil17 str0"
         d="m -1154.4131,-229.66982 c 81.4594,27.13961 140.1328,103.44579 140.1328,193.33928 0,89.887961 -58.6734,166.19599 -140.1328,193.33836 l 0,-386.67764 0,0 z"
         id="path110-4"
         style="fill:#ff0000;fill-opacity:1;fill-rule:evenodd;stroke:#000000;stroke-width:1;stroke-miterlimit:4;stroke-opacity:1;stroke-dasharray:none" />
      <path
         class="fil18 str0"
         d="m -1284.4478,-229.79893 0,387.17936 c -82.0469,-26.802 -141.2719,-103.401497 -141.2719,-193.712812 0,-89.144538 57.7012,-164.924048 138.099,-192.650248 l 3.1729,-0.8163 0,0 z"
         id="path112-0"
         style="fill:#008000;fill-opacity:1;fill-rule:evenodd;stroke:#000000;stroke-width:1;stroke-miterlimit:4;stroke-opacity:1;stroke-dasharray:none" />
      <g
         id="text3874-1"
         style="font-size:250px;font-style:normal;font-variant:normal;font-weight:normal;font-stretch:normal;text-align:start;line-height:100%;writing-mode:lr-tb;text-anchor:start;fill:#000000;fill-opacity:1;fill-rule:evenodd;stroke:none;font-family:Haettenschweiler;-inkscape-font-specification:Haettenschweiler">
        <path
           id="path2840"
           style="stroke:none"
           d="m -1171.1108,51.011272 -39.5508,0 -26.1231,-93.261718 0,93.261718 -32.1045,0 0,-175.048832 43.7012,0 21.9727,79.833989 0,-79.833989 32.1045,0 z" />
      </g>
      <g
         id="text3874-1-1"
         style="font-size:250px;font-style:normal;font-variant:normal;font-weight:normal;font-stretch:normal;text-align:start;line-height:100%;writing-mode:lr-tb;text-anchor:start;fill:#ffffff;fill-opacity:1;fill-rule:evenodd;stroke:#000000;stroke-width:1;stroke-miterlimit:4;stroke-opacity:1;stroke-dasharray:none;font-family:Haettenschweiler;-inkscape-font-specification:Haettenschweiler">
        <path
           id="path2837"
           style="stroke:#000000;stroke-width:1;stroke-miterlimit:4;stroke-opacity:1;stroke-dasharray:none"
           d="m -1345.8918,-13.137997 0,64.453125 -37.4756,0 0,-175.048828 40.4052,0 c 16.0319,1.8e-4 27.9337,2.03468 35.7056,6.10352 7.7717,4.06917 11.6576,12.36994 11.6577,24.90234 l 0,48.583984 c -10e-5,11.474693 -3.1739,19.592361 -9.5215,24.353027 -6.3477,4.760809 -19.9382,6.978417 -40.7714,6.652832 z m 12.8173,-34.301757 0,-41.992188 c 0,-6.184749 -4.2725,-9.277194 -12.8173,-9.277344 l 0,60.546875 c 8.5448,9e-5 12.8173,-3.092355 12.8173,-9.277343 z" />
      </g>
      <g
         id="text3874-1-1-5"
         style="font-size:250px;font-style:normal;font-variant:normal;font-weight:normal;font-stretch:normal;text-align:start;line-height:100%;writing-mode:lr-tb;text-anchor:start;fill:#ffffff;fill-opacity:1;fill-rule:evenodd;stroke:#000000;stroke-width:1;stroke-miterlimit:4;stroke-opacity:1;stroke-dasharray:none;font-family:Haettenschweiler;-inkscape-font-specification:Haettenschweiler">
        <path
           id="path2843"
           style="stroke:#000000;stroke-width:1;stroke-miterlimit:4;stroke-opacity:1;stroke-dasharray:none"
           d="m -1045.5989,51.315536 -38.4521,0 c -4.1505,-4.964187 -6.2257,-19.042949 -6.2256,-42.2363276 l 0,-0.2441407 0.2441,-10.4980468 c 0.2441,-14.5669899 0.3662,-22.0132719 0.3662,-22.3388669 0,-5.940675 -3.9876,-8.911049 -11.9629,-8.911133 l 0,83.984375 -38.4521,0 0,-175.048826 47.4854,0 c 10.8235,1.7e-4 20.2432,2.48227 28.2592,7.44629 8.0159,4.96435 12.0239,12.81753 12.024,23.559567 l 0,20.996094 c -10e-5,13.590604 -7.9347,22.786558 -23.8038,27.58789 15.9505,3.743582 23.9257,13.387127 23.9258,28.930665 l -0.6103,19.1650386 c -10e-5,27.9948114 2.4006,43.8639354 7.2021,47.6074214 z m -44.0674,-114.746093 0,-28.808594 c 0,-6.103366 -3.9876,-9.155119 -11.9629,-9.155269 l 0,47.241206 c 7.9753,1.06e-4 11.9629,-3.092339 11.9629,-9.277343 z" />
      </g>
      <path
         transform="matrix(1.2833085,0,0,1.2768059,663.311,-1677.4842)"
         d="m -1306.775,1285.4537 c 0,88.455 -71.9785,160.1619 -160.7685,160.1619 -88.7899,0 -160.7685,-71.7069 -160.7685,-160.1619 0,-88.4549 71.9786,-160.1618 160.7685,-160.1618 88.79,0 160.7685,71.7069 160.7685,160.1618 z"
         sodipodi:ry="160.16183"
         sodipodi:rx="160.76849"
         sodipodi:cy="1285.4537"
         sodipodi:cx="-1467.5435"
         id="path4796"
         style="fill:none;stroke:#000000;stroke-width:0.78121763;stroke-linejoin:round;stroke-miterlimit:4;stroke-opacity:1;stroke-dasharray:none;stroke-dashoffset:0"
         sodipodi:type="arc" />
    </g>
    <polygon
       style="fill:#ffffff;fill-rule:evenodd;stroke:none"
       id="polygon114"
       points="393.304,284.258 379.201,284.258 379.201,233.289 393.303,233.289 "
       class="fil4 str0"
       transform="matrix(9.2236295,0,0,9.2236295,-5550.4866,-2551.3422)" />
  </g>
</svg>
